<svg width="257" height="44" viewBox="0 0 257 44" fill="none" xmlns="http://www.w3.org/2000/svg">
<path d="M22 31.3334C16.8453 31.3334 12.6667 27.1547 12.6667 22.0001C12.6667 16.8454 16.8453 12.6667 22 12.6667C27.1546 12.6667 31.3333 16.8454 31.3333 22.0001C31.3333 27.1547 27.1546 31.3334 22 31.3334ZM22 31.3334V20.6667C22 19.194 23.1939 18.0001 24.6667 18.0001H25.3333M18.6667 23.3334H25.3333" stroke="black"/>
<path d="M97.6667 16.6667H99M89 12.6667H97C99.9455 12.6667 102.333 15.0546 102.333 18.0001V26.0001C102.333 28.9456 99.9455 31.3334 97 31.3334H89C86.0545 31.3334 83.6667 28.9456 83.6667 26.0001V18.0001C83.6667 15.0546 86.0545 12.6667 89 12.6667ZM93 26.0001C90.7909 26.0001 89 24.2092 89 22.0001C89 19.7909 90.7909 18.0001 93 18.0001C95.2091 18.0001 97 19.7909 97 22.0001C97 24.2092 95.2091 26.0001 93 26.0001Z" stroke="black"/>
<path d="M156.533 27.6006L156.98 27.8242L157.119 27.5476L156.933 27.3003L156.533 27.6006ZM158.399 29.467L158.7 29.0673L158.452 28.8815L158.176 29.0198L158.399 29.467ZM154.667 31.3334L154.219 31.1098C154.123 31.3023 154.161 31.5348 154.313 31.687C154.465 31.8391 154.698 31.8769 154.89 31.7806L154.667 31.3334ZM160 18.0001L159.723 17.5841C159.584 17.6768 159.5 17.8329 159.5 18.0001H160ZM168 26.0001V26.5001C168.167 26.5001 168.323 26.4165 168.416 26.2774L168 26.0001ZM162.339 18.7008L162.832 18.6186L162.339 18.7008ZM162.525 19.8164L162.032 19.8986L162.525 19.8164ZM161.949 21.145L162.227 21.561L161.949 21.145ZM167.299 23.6611L167.381 23.1679H167.381L167.299 23.6611ZM166.184 23.4751L166.102 23.9683V23.9683L166.184 23.4751ZM164.855 24.0507L164.439 23.7734L164.855 24.0507ZM154.167 22.0001C154.167 24.2135 154.899 26.2573 156.133 27.9009L156.933 27.3003C155.824 25.8239 155.167 23.9895 155.167 22.0001H154.167ZM164 12.1667C158.569 12.1667 154.167 16.5693 154.167 22.0001H155.167C155.167 17.1216 159.121 13.1667 164 13.1667V12.1667ZM173.833 22.0001C173.833 16.5693 169.431 12.1667 164 12.1667V13.1667C168.879 13.1667 172.833 17.1216 172.833 22.0001H173.833ZM164 31.8334C169.431 31.8334 173.833 27.4309 173.833 22.0001H172.833C172.833 26.8786 168.879 30.8334 164 30.8334V31.8334ZM158.099 29.8668C159.743 31.1015 161.787 31.8334 164 31.8334V30.8334C162.011 30.8334 160.176 30.1764 158.7 29.0673L158.099 29.8668ZM154.89 31.7806L158.623 29.9142L158.176 29.0198L154.443 30.8862L154.89 31.7806ZM156.086 27.377L154.219 31.1098L155.114 31.557L156.98 27.8242L156.086 27.377ZM159.5 18.0001V19.3334H160.5V18.0001H159.5ZM166.667 26.5001H168V25.5001H166.667V26.5001ZM159.5 19.3334C159.5 23.2915 162.709 26.5001 166.667 26.5001V25.5001C163.261 25.5001 160.5 22.7392 160.5 19.3334H159.5ZM160.277 18.4161L160.562 18.2266L160.007 17.3946L159.723 17.5841L160.277 18.4161ZM161.846 18.783L162.032 19.8986L163.018 19.7342L162.832 18.6186L161.846 18.783ZM161.672 20.7289L160.389 21.5841L160.944 22.4161L162.227 21.561L161.672 20.7289ZM162.032 19.8986C162.086 20.222 161.945 20.547 161.672 20.7289L162.227 21.561C162.827 21.1608 163.137 20.4458 163.018 19.7342L162.032 19.8986ZM160.562 18.2266C161.065 17.8912 161.746 18.1865 161.846 18.783L162.832 18.6186C162.613 17.3063 161.114 16.6566 160.007 17.3946L160.562 18.2266ZM168.416 26.2774L168.605 25.9932L167.773 25.4385L167.584 25.7227L168.416 26.2774ZM167.381 23.1679L166.266 22.9819L166.102 23.9683L167.217 24.1543L167.381 23.1679ZM164.439 23.7734L163.584 25.0561L164.416 25.6108L165.271 24.3281L164.439 23.7734ZM166.266 22.9819C165.554 22.8633 164.839 23.1731 164.439 23.7734L165.271 24.3281C165.453 24.0552 165.778 23.9144 166.102 23.9683L166.266 22.9819ZM168.605 25.9932C169.343 24.8863 168.694 23.3866 167.381 23.1679L167.217 24.1543C167.814 24.2537 168.109 24.9354 167.773 25.4385L168.605 25.9932Z" fill="black"/>
<mask id="path-4-outside-1_1_3445" maskUnits="userSpaceOnUse" x="228" y="18.3508" width="13" height="8" fill="black">
<rect fill="white" x="228" y="18.3508" width="13" height="8"/>
<path d="M239.511 24.1808C239.272 23.8992 239.002 23.6479 238.74 23.4047C238.648 23.3193 238.553 23.2309 238.462 23.1432C238.462 23.1432 238.462 23.1432 238.462 23.1431C238.339 23.0252 238.278 22.9416 238.272 22.8798C238.266 22.819 238.308 22.7289 238.405 22.5957C238.551 22.3953 238.706 22.1945 238.856 22.0004C238.989 21.8279 239.127 21.6494 239.259 21.47L239.289 21.4297C239.546 21.0795 239.813 20.7174 239.956 20.2761C239.996 20.1496 240.039 19.9624 239.937 19.798C239.834 19.6336 239.645 19.5849 239.511 19.5625C239.446 19.5516 239.384 19.5507 239.327 19.5507L237.655 19.5492C237.366 19.5445 237.166 19.679 237.056 19.9491C236.969 20.1648 236.866 20.4148 236.746 20.6519C236.517 21.1097 236.226 21.637 235.805 22.0763L235.786 22.0959C235.757 22.126 235.71 22.1751 235.686 22.1864C235.641 22.1582 235.588 21.9971 235.59 21.9126C235.59 21.9105 235.59 21.9085 235.59 21.9064L235.589 20.01C235.589 20.0004 235.588 19.9907 235.587 19.9812C235.549 19.7106 235.476 19.4394 235.04 19.3549C235.026 19.3522 235.012 19.3508 234.998 19.3508H233.259C232.932 19.3508 232.759 19.4979 232.62 19.6574C232.58 19.7039 232.473 19.8273 232.527 19.9782C232.582 20.1309 232.746 20.1614 232.8 20.1714C232.99 20.2067 233.088 20.3119 233.118 20.5129C233.178 20.9035 233.185 21.3213 233.141 21.8272C233.129 21.963 233.106 22.0663 233.069 22.1521C233.059 22.1759 233.05 22.1906 233.043 22.1993C233.033 22.1953 233.018 22.1877 232.996 22.1732C232.863 22.0838 232.763 21.9447 232.666 21.8103C232.278 21.2729 231.952 20.6795 231.669 19.9957C231.552 19.7155 231.333 19.559 231.052 19.555C230.516 19.5462 230.021 19.5465 229.538 19.5557C229.31 19.5596 229.151 19.6299 229.063 19.7649C228.976 19.9002 228.979 20.0726 229.073 20.2775C229.743 21.7408 230.352 22.8052 231.046 23.729C231.535 24.3794 232.027 24.8308 232.595 25.1498C233.191 25.4849 233.864 25.6491 234.645 25.649C234.733 25.649 234.824 25.6469 234.915 25.6426C235.397 25.6211 235.593 25.433 235.614 24.9726C235.626 24.7292 235.654 24.5321 235.749 24.3608C235.776 24.3129 235.806 24.2807 235.83 24.2748C235.855 24.2686 235.9 24.2838 235.95 24.3157C236.041 24.3738 236.12 24.4527 236.185 24.522C236.25 24.5924 236.316 24.6651 236.38 24.7354C236.517 24.8851 236.657 25.0399 236.805 25.1876C237.139 25.5218 237.524 25.675 237.95 25.6429L239.48 25.6436C239.48 25.6436 239.48 25.6436 239.48 25.6436C239.484 25.6436 239.489 25.6435 239.494 25.6432C239.671 25.6316 239.823 25.5357 239.913 25.38C240.021 25.1924 240.019 24.9548 239.908 24.7442C239.793 24.5252 239.643 24.3367 239.511 24.1808ZM239.531 25.1684C239.51 25.2051 239.484 25.2118 239.471 25.2134L237.941 25.2127C237.941 25.2127 237.941 25.2127 237.941 25.2127C237.935 25.2127 237.929 25.2129 237.923 25.2134C237.622 25.2381 237.366 25.1341 237.118 24.8862C236.977 24.7457 236.84 24.5947 236.707 24.4487C236.642 24.3776 236.575 24.304 236.508 24.2316C236.425 24.1422 236.321 24.0393 236.189 23.9548C235.99 23.8284 235.826 23.8322 235.723 23.8577C235.621 23.8829 235.476 23.9548 235.365 24.154C235.221 24.4118 235.189 24.6898 235.176 24.9525C235.169 25.1132 235.141 25.1556 235.13 25.1664C235.114 25.1805 235.064 25.2054 234.895 25.2129C234.083 25.2504 233.402 25.1077 232.812 24.7764C232.299 24.4881 231.85 24.0741 231.399 23.4736C230.723 22.5754 230.129 21.5353 229.473 20.1012C229.449 20.0492 229.441 20.0168 229.439 19.9994C229.456 19.994 229.489 19.9869 229.546 19.9859C230.024 19.9768 230.514 19.9765 231.045 19.9852C231.118 19.9863 231.2 20.0077 231.263 20.1582C231.559 20.8726 231.901 21.4944 232.308 22.059C232.416 22.2089 232.551 22.3954 232.749 22.5283C232.93 22.6502 233.077 22.6444 233.169 22.618C233.26 22.5917 233.387 22.5185 233.473 22.3196C233.528 22.1914 233.561 22.0471 233.578 21.8647C233.625 21.3236 233.617 20.8737 233.551 20.4494C233.505 20.1453 233.346 19.9257 233.094 19.8135C233.138 19.7907 233.189 19.7811 233.259 19.7811H234.975C235.072 19.8024 235.091 19.8274 235.097 19.8359C235.125 19.8722 235.141 19.9581 235.151 20.0252L235.152 21.9041C235.148 22.0842 235.237 22.4837 235.541 22.5932C235.543 22.5942 235.546 22.595 235.548 22.5958C235.825 22.6845 236.008 22.4929 236.106 22.39L236.123 22.3717C236.585 21.8905 236.896 21.3282 237.139 20.8423C237.266 20.5914 237.373 20.3318 237.464 20.1081C237.509 19.9959 237.55 19.9774 237.649 19.9795C237.65 19.9795 237.652 19.9795 237.653 19.9795L239.327 19.981C239.366 19.981 239.406 19.9814 239.438 19.9867C239.517 20 239.55 20.0163 239.561 20.023C239.562 20.0355 239.562 20.0713 239.538 20.1462C239.416 20.5214 239.182 20.8402 238.933 21.1778L238.904 21.2181C238.775 21.3935 238.638 21.5699 238.507 21.7405C238.355 21.9371 238.198 22.1404 238.049 22.3455C237.731 22.7815 237.759 23.0709 238.156 23.4512C238.25 23.5412 238.346 23.6307 238.439 23.7172C238.703 23.9626 238.952 24.1943 239.174 24.456C239.291 24.5938 239.423 24.7594 239.519 24.9418C239.569 25.0373 239.557 25.1236 239.531 25.1684Z"/>
</mask>
<path d="M239.511 24.1808C239.272 23.8992 239.002 23.6479 238.74 23.4047C238.648 23.3193 238.553 23.2309 238.462 23.1432C238.462 23.1432 238.462 23.1432 238.462 23.1431C238.339 23.0252 238.278 22.9416 238.272 22.8798C238.266 22.819 238.308 22.7289 238.405 22.5957C238.551 22.3953 238.706 22.1945 238.856 22.0004C238.989 21.8279 239.127 21.6494 239.259 21.47L239.289 21.4297C239.546 21.0795 239.813 20.7174 239.956 20.2761C239.996 20.1496 240.039 19.9624 239.937 19.798C239.834 19.6336 239.645 19.5849 239.511 19.5625C239.446 19.5516 239.384 19.5507 239.327 19.5507L237.655 19.5492C237.366 19.5445 237.166 19.679 237.056 19.9491C236.969 20.1648 236.866 20.4148 236.746 20.6519C236.517 21.1097 236.226 21.637 235.805 22.0763L235.786 22.0959C235.757 22.126 235.71 22.1751 235.686 22.1864C235.641 22.1582 235.588 21.9971 235.59 21.9126C235.59 21.9105 235.59 21.9085 235.59 21.9064L235.589 20.01C235.589 20.0004 235.588 19.9907 235.587 19.9812C235.549 19.7106 235.476 19.4394 235.04 19.3549C235.026 19.3522 235.012 19.3508 234.998 19.3508H233.259C232.932 19.3508 232.759 19.4979 232.62 19.6574C232.58 19.7039 232.473 19.8273 232.527 19.9782C232.582 20.1309 232.746 20.1614 232.8 20.1714C232.99 20.2067 233.088 20.3119 233.118 20.5129C233.178 20.9035 233.185 21.3213 233.141 21.8272C233.129 21.963 233.106 22.0663 233.069 22.1521C233.059 22.1759 233.05 22.1906 233.043 22.1993C233.033 22.1953 233.018 22.1877 232.996 22.1732C232.863 22.0838 232.763 21.9447 232.666 21.8103C232.278 21.2729 231.952 20.6795 231.669 19.9957C231.552 19.7155 231.333 19.559 231.052 19.555C230.516 19.5462 230.021 19.5465 229.538 19.5557C229.31 19.5596 229.151 19.6299 229.063 19.7649C228.976 19.9002 228.979 20.0726 229.073 20.2775C229.743 21.7408 230.352 22.8052 231.046 23.729C231.535 24.3794 232.027 24.8308 232.595 25.1498C233.191 25.4849 233.864 25.6491 234.645 25.649C234.733 25.649 234.824 25.6469 234.915 25.6426C235.397 25.6211 235.593 25.433 235.614 24.9726C235.626 24.7292 235.654 24.5321 235.749 24.3608C235.776 24.3129 235.806 24.2807 235.83 24.2748C235.855 24.2686 235.9 24.2838 235.95 24.3157C236.041 24.3738 236.12 24.4527 236.185 24.522C236.25 24.5924 236.316 24.6651 236.38 24.7354C236.517 24.8851 236.657 25.0399 236.805 25.1876C237.139 25.5218 237.524 25.675 237.95 25.6429L239.48 25.6436C239.48 25.6436 239.48 25.6436 239.48 25.6436C239.484 25.6436 239.489 25.6435 239.494 25.6432C239.671 25.6316 239.823 25.5357 239.913 25.38C240.021 25.1924 240.019 24.9548 239.908 24.7442C239.793 24.5252 239.643 24.3367 239.511 24.1808ZM239.531 25.1684C239.51 25.2051 239.484 25.2118 239.471 25.2134L237.941 25.2127C237.941 25.2127 237.941 25.2127 237.941 25.2127C237.935 25.2127 237.929 25.2129 237.923 25.2134C237.622 25.2381 237.366 25.1341 237.118 24.8862C236.977 24.7457 236.84 24.5947 236.707 24.4487C236.642 24.3776 236.575 24.304 236.508 24.2316C236.425 24.1422 236.321 24.0393 236.189 23.9548C235.99 23.8284 235.826 23.8322 235.723 23.8577C235.621 23.8829 235.476 23.9548 235.365 24.154C235.221 24.4118 235.189 24.6898 235.176 24.9525C235.169 25.1132 235.141 25.1556 235.13 25.1664C235.114 25.1805 235.064 25.2054 234.895 25.2129C234.083 25.2504 233.402 25.1077 232.812 24.7764C232.299 24.4881 231.85 24.0741 231.399 23.4736C230.723 22.5754 230.129 21.5353 229.473 20.1012C229.449 20.0492 229.441 20.0168 229.439 19.9994C229.456 19.994 229.489 19.9869 229.546 19.9859C230.024 19.9768 230.514 19.9765 231.045 19.9852C231.118 19.9863 231.2 20.0077 231.263 20.1582C231.559 20.8726 231.901 21.4944 232.308 22.059C232.416 22.2089 232.551 22.3954 232.749 22.5283C232.93 22.6502 233.077 22.6444 233.169 22.618C233.26 22.5917 233.387 22.5185 233.473 22.3196C233.528 22.1914 233.561 22.0471 233.578 21.8647C233.625 21.3236 233.617 20.8737 233.551 20.4494C233.505 20.1453 233.346 19.9257 233.094 19.8135C233.138 19.7907 233.189 19.7811 233.259 19.7811H234.975C235.072 19.8024 235.091 19.8274 235.097 19.8359C235.125 19.8722 235.141 19.9581 235.151 20.0252L235.152 21.9041C235.148 22.0842 235.237 22.4837 235.541 22.5932C235.543 22.5942 235.546 22.595 235.548 22.5958C235.825 22.6845 236.008 22.4929 236.106 22.39L236.123 22.3717C236.585 21.8905 236.896 21.3282 237.139 20.8423C237.266 20.5914 237.373 20.3318 237.464 20.1081C237.509 19.9959 237.55 19.9774 237.649 19.9795C237.65 19.9795 237.652 19.9795 237.653 19.9795L239.327 19.981C239.366 19.981 239.406 19.9814 239.438 19.9867C239.517 20 239.55 20.0163 239.561 20.023C239.562 20.0355 239.562 20.0713 239.538 20.1462C239.416 20.5214 239.182 20.8402 238.933 21.1778L238.904 21.2181C238.775 21.3935 238.638 21.5699 238.507 21.7405C238.355 21.9371 238.198 22.1404 238.049 22.3455C237.731 22.7815 237.759 23.0709 238.156 23.4512C238.25 23.5412 238.346 23.6307 238.439 23.7172C238.703 23.9626 238.952 24.1943 239.174 24.456C239.291 24.5938 239.423 24.7594 239.519 24.9418C239.569 25.0373 239.557 25.1236 239.531 25.1684Z" fill="black"/>
<path d="M239.511 24.1808C239.272 23.8992 239.002 23.6479 238.74 23.4047C238.648 23.3193 238.553 23.2309 238.462 23.1432C238.462 23.1432 238.462 23.1432 238.462 23.1431C238.339 23.0252 238.278 22.9416 238.272 22.8798C238.266 22.819 238.308 22.7289 238.405 22.5957C238.551 22.3953 238.706 22.1945 238.856 22.0004C238.989 21.8279 239.127 21.6494 239.259 21.47L239.289 21.4297C239.546 21.0795 239.813 20.7174 239.956 20.2761C239.996 20.1496 240.039 19.9624 239.937 19.798C239.834 19.6336 239.645 19.5849 239.511 19.5625C239.446 19.5516 239.384 19.5507 239.327 19.5507L237.655 19.5492C237.366 19.5445 237.166 19.679 237.056 19.9491C236.969 20.1648 236.866 20.4148 236.746 20.6519C236.517 21.1097 236.226 21.637 235.805 22.0763L235.786 22.0959C235.757 22.126 235.71 22.1751 235.686 22.1864C235.641 22.1582 235.588 21.9971 235.59 21.9126C235.59 21.9105 235.59 21.9085 235.59 21.9064L235.589 20.01C235.589 20.0004 235.588 19.9907 235.587 19.9812C235.549 19.7106 235.476 19.4394 235.04 19.3549C235.026 19.3522 235.012 19.3508 234.998 19.3508H233.259C232.932 19.3508 232.759 19.4979 232.62 19.6574C232.58 19.7039 232.473 19.8273 232.527 19.9782C232.582 20.1309 232.746 20.1614 232.8 20.1714C232.99 20.2067 233.088 20.3119 233.118 20.5129C233.178 20.9035 233.185 21.3213 233.141 21.8272C233.129 21.963 233.106 22.0663 233.069 22.1521C233.059 22.1759 233.05 22.1906 233.043 22.1993C233.033 22.1953 233.018 22.1877 232.996 22.1732C232.863 22.0838 232.763 21.9447 232.666 21.8103C232.278 21.2729 231.952 20.6795 231.669 19.9957C231.552 19.7155 231.333 19.559 231.052 19.555C230.516 19.5462 230.021 19.5465 229.538 19.5557C229.31 19.5596 229.151 19.6299 229.063 19.7649C228.976 19.9002 228.979 20.0726 229.073 20.2775C229.743 21.7408 230.352 22.8052 231.046 23.729C231.535 24.3794 232.027 24.8308 232.595 25.1498C233.191 25.4849 233.864 25.6491 234.645 25.649C234.733 25.649 234.824 25.6469 234.915 25.6426C235.397 25.6211 235.593 25.433 235.614 24.9726C235.626 24.7292 235.654 24.5321 235.749 24.3608C235.776 24.3129 235.806 24.2807 235.83 24.2748C235.855 24.2686 235.9 24.2838 235.95 24.3157C236.041 24.3738 236.12 24.4527 236.185 24.522C236.25 24.5924 236.316 24.6651 236.38 24.7354C236.517 24.8851 236.657 25.0399 236.805 25.1876C237.139 25.5218 237.524 25.675 237.95 25.6429L239.48 25.6436C239.48 25.6436 239.48 25.6436 239.48 25.6436C239.484 25.6436 239.489 25.6435 239.494 25.6432C239.671 25.6316 239.823 25.5357 239.913 25.38C240.021 25.1924 240.019 24.9548 239.908 24.7442C239.793 24.5252 239.643 24.3367 239.511 24.1808ZM239.531 25.1684C239.51 25.2051 239.484 25.2118 239.471 25.2134L237.941 25.2127C237.941 25.2127 237.941 25.2127 237.941 25.2127C237.935 25.2127 237.929 25.2129 237.923 25.2134C237.622 25.2381 237.366 25.1341 237.118 24.8862C236.977 24.7457 236.84 24.5947 236.707 24.4487C236.642 24.3776 236.575 24.304 236.508 24.2316C236.425 24.1422 236.321 24.0393 236.189 23.9548C235.99 23.8284 235.826 23.8322 235.723 23.8577C235.621 23.8829 235.476 23.9548 235.365 24.154C235.221 24.4118 235.189 24.6898 235.176 24.9525C235.169 25.1132 235.141 25.1556 235.13 25.1664C235.114 25.1805 235.064 25.2054 234.895 25.2129C234.083 25.2504 233.402 25.1077 232.812 24.7764C232.299 24.4881 231.85 24.0741 231.399 23.4736C230.723 22.5754 230.129 21.5353 229.473 20.1012C229.449 20.0492 229.441 20.0168 229.439 19.9994C229.456 19.994 229.489 19.9869 229.546 19.9859C230.024 19.9768 230.514 19.9765 231.045 19.9852C231.118 19.9863 231.2 20.0077 231.263 20.1582C231.559 20.8726 231.901 21.4944 232.308 22.059C232.416 22.2089 232.551 22.3954 232.749 22.5283C232.93 22.6502 233.077 22.6444 233.169 22.618C233.26 22.5917 233.387 22.5185 233.473 22.3196C233.528 22.1914 233.561 22.0471 233.578 21.8647C233.625 21.3236 233.617 20.8737 233.551 20.4494C233.505 20.1453 233.346 19.9257 233.094 19.8135C233.138 19.7907 233.189 19.7811 233.259 19.7811H234.975C235.072 19.8024 235.091 19.8274 235.097 19.8359C235.125 19.8722 235.141 19.9581 235.151 20.0252L235.152 21.9041C235.148 22.0842 235.237 22.4837 235.541 22.5932C235.543 22.5942 235.546 22.595 235.548 22.5958C235.825 22.6845 236.008 22.4929 236.106 22.39L236.123 22.3717C236.585 21.8905 236.896 21.3282 237.139 20.8423C237.266 20.5914 237.373 20.3318 237.464 20.1081C237.509 19.9959 237.55 19.9774 237.649 19.9795C237.65 19.9795 237.652 19.9795 237.653 19.9795L239.327 19.981C239.366 19.981 239.406 19.9814 239.438 19.9867C239.517 20 239.55 20.0163 239.561 20.023C239.562 20.0355 239.562 20.0713 239.538 20.1462C239.416 20.5214 239.182 20.8402 238.933 21.1778L238.904 21.2181C238.775 21.3935 238.638 21.5699 238.507 21.7405C238.355 21.9371 238.198 22.1404 238.049 22.3455C237.731 22.7815 237.759 23.0709 238.156 23.4512C238.25 23.5412 238.346 23.6307 238.439 23.7172C238.703 23.9626 238.952 24.1943 239.174 24.456C239.291 24.5938 239.423 24.7594 239.519 24.9418C239.569 25.0373 239.557 25.1236 239.531 25.1684Z" stroke="black" stroke-width="0.4" mask="url(#path-4-outside-1_1_3445)"/>
<circle cx="235" cy="22" r="9.5" stroke="black"/>
</svg>
